# xmcd CD database file
#
# Track frame offsets:
#	150
#	13557
#	26284
#	38245
#	48795
#	61223
#	74051
#	87566
#	98688
#	110785
#	123011
#
# Disc length: 1817 seconds
#
# Revision: 0
# Processed by: cddbd v1.5.2PL0 Copyright (c) Steve Scherf et al.
# Submitted via: CDex 1.51
#
DISCID=8a07170b
DTITLE=Amos Milburn - Down the Road Apiece
DYEAR=1900
DGENRE=Jazz
TTITLE0=Down the Road Apiece
TTITLE1=Hold Me Baby
TTITLE2=Let's Rock A While
TTITLE3=Pretty Mama Blues
TTITLE4=Roomin' House Boogie
TTITLE5=Sax Shack Boogie
TTITLE6=Walking Blues
TTITLE7=House Party Tonight
TTITLE8=In the Middle of the Night
TTITLE9=Let Me Go Home Whiskey
TTITLE10=Bad Bad Whiskey
EXTD=
EXTT0=
EXTT1=
EXTT2=
EXTT3=
EXTT4=
EXTT5=
EXTT6=
EXTT7=
EXTT8=
EXTT9=
EXTT10=
PLAYORDER=
